<mxfile host="app.diagrams.net" agent="Mozilla/5.0 (Windows NT 10.0; Win64; x64) AppleWebKit/537.36 (KHTML, like Gecko) Chrome/133.0.0.0 Safari/537.36 Edg/133.0.0.0" version="26.0.16">
  <diagram name="Page-1" id="e7e014a7-5840-1c2e-5031-d8a46d1fe8dd">
    <mxGraphModel dx="1426" dy="1615" grid="1" gridSize="10" guides="1" tooltips="1" connect="1" arrows="1" fold="1" page="1" pageScale="1" pageWidth="1169" pageHeight="826" background="none" math="0" shadow="0">
      <root>
        <mxCell id="0" />
        <mxCell id="1" parent="0" />
        <mxCell id="NhYI7kzIbhqHk0hFpWX_-93" style="edgeStyle=orthogonalEdgeStyle;rounded=0;orthogonalLoop=1;jettySize=auto;html=1;exitX=0.5;exitY=1;exitDx=0;exitDy=0;entryX=0.5;entryY=0;entryDx=0;entryDy=0;fontSize=15;" edge="1" parent="1" source="NhYI7kzIbhqHk0hFpWX_-41" target="NhYI7kzIbhqHk0hFpWX_-43">
          <mxGeometry relative="1" as="geometry" />
        </mxCell>
        <mxCell id="NhYI7kzIbhqHk0hFpWX_-41" value="" style="ellipse;html=1;shape=startState;fillColor=#000000;strokeColor=#ff0000;fontSize=15;" vertex="1" parent="1">
          <mxGeometry x="530" y="-60" width="30" height="30" as="geometry" />
        </mxCell>
        <mxCell id="NhYI7kzIbhqHk0hFpWX_-149" style="edgeStyle=orthogonalEdgeStyle;rounded=0;orthogonalLoop=1;jettySize=auto;html=1;exitX=0.5;exitY=1;exitDx=0;exitDy=0;entryX=0.5;entryY=0;entryDx=0;entryDy=0;fontSize=15;" edge="1" parent="1" source="NhYI7kzIbhqHk0hFpWX_-43" target="NhYI7kzIbhqHk0hFpWX_-121">
          <mxGeometry relative="1" as="geometry" />
        </mxCell>
        <mxCell id="NhYI7kzIbhqHk0hFpWX_-43" value="Verbindung zum Treiber aufbauen" style="rounded=1;whiteSpace=wrap;html=1;arcSize=40;fontColor=#000000;fillColor=#ffffc0;strokeColor=#ff0000;fontSize=15;" vertex="1" parent="1">
          <mxGeometry x="482.5" y="-20" width="125" height="50" as="geometry" />
        </mxCell>
        <mxCell id="NhYI7kzIbhqHk0hFpWX_-96" style="edgeStyle=orthogonalEdgeStyle;rounded=0;orthogonalLoop=1;jettySize=auto;html=1;exitX=0.5;exitY=1;exitDx=0;exitDy=0;fontSize=15;" edge="1" parent="1" source="NhYI7kzIbhqHk0hFpWX_-45" target="NhYI7kzIbhqHk0hFpWX_-53">
          <mxGeometry relative="1" as="geometry" />
        </mxCell>
        <mxCell id="NhYI7kzIbhqHk0hFpWX_-45" value="aktuelle Temperatur aus der Treiberfunktion Temperatur lesen ermitteln" style="rounded=1;whiteSpace=wrap;html=1;arcSize=40;fontColor=#000000;fillColor=#ffffc0;strokeColor=#ff0000;fontSize=15;" vertex="1" parent="1">
          <mxGeometry x="441.25" y="210" width="207.5" height="100" as="geometry" />
        </mxCell>
        <mxCell id="NhYI7kzIbhqHk0hFpWX_-99" style="edgeStyle=orthogonalEdgeStyle;rounded=0;orthogonalLoop=1;jettySize=auto;html=1;exitX=0.5;exitY=1;exitDx=0;exitDy=0;entryX=0.5;entryY=0;entryDx=0;entryDy=0;fontSize=15;" edge="1" parent="1" source="NhYI7kzIbhqHk0hFpWX_-49" target="NhYI7kzIbhqHk0hFpWX_-59">
          <mxGeometry relative="1" as="geometry" />
        </mxCell>
        <mxCell id="NhYI7kzIbhqHk0hFpWX_-49" value="Funktion lokale Hysteresenberechnung aufrufen" style="rounded=1;whiteSpace=wrap;html=1;arcSize=40;fontColor=#000000;fillColor=#ffffc0;strokeColor=#ff0000;fontSize=15;" vertex="1" parent="1">
          <mxGeometry x="60" y="380" width="180" height="70" as="geometry" />
        </mxCell>
        <mxCell id="NhYI7kzIbhqHk0hFpWX_-114" style="edgeStyle=orthogonalEdgeStyle;rounded=0;orthogonalLoop=1;jettySize=auto;html=1;exitX=0.5;exitY=1;exitDx=0;exitDy=0;entryX=0.5;entryY=0;entryDx=0;entryDy=0;fontSize=15;" edge="1" parent="1" source="NhYI7kzIbhqHk0hFpWX_-51" target="NhYI7kzIbhqHk0hFpWX_-65">
          <mxGeometry relative="1" as="geometry" />
        </mxCell>
        <mxCell id="NhYI7kzIbhqHk0hFpWX_-51" value="Funktion ZeitgrafBehandlung aufrufen" style="rounded=1;whiteSpace=wrap;html=1;arcSize=40;fontColor=#000000;fillColor=#ffffc0;strokeColor=#ff0000;fontSize=15;" vertex="1" parent="1">
          <mxGeometry x="870" y="380" width="170" height="70" as="geometry" />
        </mxCell>
        <mxCell id="NhYI7kzIbhqHk0hFpWX_-53" value="" style="shape=line;html=1;strokeWidth=6;strokeColor=#ff0000;fontSize=15;" vertex="1" parent="1">
          <mxGeometry x="40" y="330" width="1010" height="10" as="geometry" />
        </mxCell>
        <mxCell id="NhYI7kzIbhqHk0hFpWX_-106" style="edgeStyle=orthogonalEdgeStyle;rounded=0;orthogonalLoop=1;jettySize=auto;html=1;exitX=0.5;exitY=1;exitDx=0;exitDy=0;entryX=0.5;entryY=0;entryDx=0;entryDy=0;fontSize=15;" edge="1" parent="1" source="NhYI7kzIbhqHk0hFpWX_-56" target="NhYI7kzIbhqHk0hFpWX_-63">
          <mxGeometry relative="1" as="geometry" />
        </mxCell>
        <mxCell id="NhYI7kzIbhqHk0hFpWX_-56" value="Funktion Temperaturregler aufrufen" style="rounded=1;whiteSpace=wrap;html=1;arcSize=40;fontColor=#000000;fillColor=#ffffc0;strokeColor=#ff0000;fontSize=15;" vertex="1" parent="1">
          <mxGeometry x="560" y="378" width="155" height="70" as="geometry" />
        </mxCell>
        <mxCell id="NhYI7kzIbhqHk0hFpWX_-100" style="edgeStyle=orthogonalEdgeStyle;rounded=0;orthogonalLoop=1;jettySize=auto;html=1;exitX=0.5;exitY=1;exitDx=0;exitDy=0;entryX=0.5;entryY=0;entryDx=0;entryDy=0;fontSize=15;" edge="1" parent="1" source="NhYI7kzIbhqHk0hFpWX_-59" target="NhYI7kzIbhqHk0hFpWX_-70">
          <mxGeometry relative="1" as="geometry" />
        </mxCell>
        <mxCell id="NhYI7kzIbhqHk0hFpWX_-59" value="Prüfen ob es im Temperatur-Array einen neuen Wendepunkt gibt und diesen ggf. speichern" style="rounded=1;whiteSpace=wrap;html=1;arcSize=40;fontColor=#000000;fillColor=#ffffc0;strokeColor=#ff0000;fontSize=15;" vertex="1" parent="1">
          <mxGeometry x="55" y="460" width="190" height="90" as="geometry" />
        </mxCell>
        <mxCell id="NhYI7kzIbhqHk0hFpWX_-62" style="edgeStyle=orthogonalEdgeStyle;rounded=0;orthogonalLoop=1;jettySize=auto;html=1;exitX=0.5;exitY=1;exitDx=0;exitDy=0;fontSize=15;" edge="1" parent="1" source="NhYI7kzIbhqHk0hFpWX_-59" target="NhYI7kzIbhqHk0hFpWX_-59">
          <mxGeometry relative="1" as="geometry" />
        </mxCell>
        <mxCell id="NhYI7kzIbhqHk0hFpWX_-63" value="Neue Ventilstellung aufgrund der Soll-Isttemperatur, der Regelerauswahl und der Regelparameter bestimmen und ausgeben" style="rounded=1;whiteSpace=wrap;html=1;arcSize=40;fontColor=#000000;fillColor=#ffffc0;strokeColor=#ff0000;fontSize=15;" vertex="1" parent="1">
          <mxGeometry x="487.5" y="470" width="300" height="70" as="geometry" />
        </mxCell>
        <mxCell id="NhYI7kzIbhqHk0hFpWX_-115" style="edgeStyle=orthogonalEdgeStyle;rounded=0;orthogonalLoop=1;jettySize=auto;html=1;exitX=0.5;exitY=1;exitDx=0;exitDy=0;entryX=0.5;entryY=0;entryDx=0;entryDy=0;fontSize=15;" edge="1" parent="1" source="NhYI7kzIbhqHk0hFpWX_-65" target="NhYI7kzIbhqHk0hFpWX_-67">
          <mxGeometry relative="1" as="geometry" />
        </mxCell>
        <mxCell id="NhYI7kzIbhqHk0hFpWX_-65" value="Aktuelle Temperatur mit Zeitstempel zu den Temperatur und Zeitstemple Attay hinzufügen" style="rounded=1;whiteSpace=wrap;html=1;arcSize=40;fontColor=#000000;fillColor=#ffffc0;strokeColor=#ff0000;fontSize=15;" vertex="1" parent="1">
          <mxGeometry x="844.38" y="465" width="221.25" height="80" as="geometry" />
        </mxCell>
        <mxCell id="NhYI7kzIbhqHk0hFpWX_-116" style="edgeStyle=orthogonalEdgeStyle;rounded=0;orthogonalLoop=1;jettySize=auto;html=1;exitX=0.5;exitY=1;exitDx=0;exitDy=0;entryX=0.5;entryY=0;entryDx=0;entryDy=0;fontSize=15;" edge="1" parent="1" source="NhYI7kzIbhqHk0hFpWX_-67" target="NhYI7kzIbhqHk0hFpWX_-69">
          <mxGeometry relative="1" as="geometry" />
        </mxCell>
        <mxCell id="NhYI7kzIbhqHk0hFpWX_-67" value="Beide Arrays auf 1000 Werte begrenzen" style="rounded=1;whiteSpace=wrap;html=1;arcSize=40;fontColor=#000000;fillColor=#ffffc0;strokeColor=#ff0000;fontSize=15;" vertex="1" parent="1">
          <mxGeometry x="870" y="560" width="170" height="40" as="geometry" />
        </mxCell>
        <mxCell id="NhYI7kzIbhqHk0hFpWX_-117" style="edgeStyle=orthogonalEdgeStyle;rounded=0;orthogonalLoop=1;jettySize=auto;html=1;exitX=0.5;exitY=1;exitDx=0;exitDy=0;entryX=0.5;entryY=0;entryDx=0;entryDy=0;fontSize=15;" edge="1" parent="1" source="NhYI7kzIbhqHk0hFpWX_-69" target="NhYI7kzIbhqHk0hFpWX_-74">
          <mxGeometry relative="1" as="geometry" />
        </mxCell>
        <mxCell id="NhYI7kzIbhqHk0hFpWX_-69" value="Beide Arrays zu einem Graf zusammensetzen und ausgeben" style="rounded=1;whiteSpace=wrap;html=1;arcSize=40;fontColor=#000000;fillColor=#ffffc0;strokeColor=#ff0000;fontSize=15;" vertex="1" parent="1">
          <mxGeometry x="844.38" y="620" width="230" height="50" as="geometry" />
        </mxCell>
        <mxCell id="NhYI7kzIbhqHk0hFpWX_-101" style="edgeStyle=orthogonalEdgeStyle;rounded=0;orthogonalLoop=1;jettySize=auto;html=1;exitX=0.5;exitY=1;exitDx=0;exitDy=0;entryX=0.5;entryY=0;entryDx=0;entryDy=0;fontSize=15;" edge="1" parent="1" source="NhYI7kzIbhqHk0hFpWX_-70" target="NhYI7kzIbhqHk0hFpWX_-76">
          <mxGeometry relative="1" as="geometry" />
        </mxCell>
        <mxCell id="NhYI7kzIbhqHk0hFpWX_-70" value="Differenz zwischen den beiden Wendepunkten bestimmen und ausgeben" style="rounded=1;whiteSpace=wrap;html=1;arcSize=40;fontColor=#000000;fillColor=#ffffc0;strokeColor=#ff0000;fontSize=15;" vertex="1" parent="1">
          <mxGeometry x="35" y="570" width="230" height="60" as="geometry" />
        </mxCell>
        <mxCell id="NhYI7kzIbhqHk0hFpWX_-72" value="Im Frontpanel neue Ventilstellung anzeigen" style="rounded=1;whiteSpace=wrap;html=1;arcSize=40;fontColor=#000000;fillColor=#ffffc0;strokeColor=#ff0000;fontSize=15;" vertex="1" parent="1">
          <mxGeometry x="635" y="610" width="167.5" height="40" as="geometry" />
        </mxCell>
        <mxCell id="NhYI7kzIbhqHk0hFpWX_-74" value="Graf auf dem Frontpanel anzeigen" style="rounded=1;whiteSpace=wrap;html=1;arcSize=40;fontColor=#000000;fillColor=#ffffc0;strokeColor=#ff0000;fontSize=15;" vertex="1" parent="1">
          <mxGeometry x="872.5" y="690" width="165" height="40" as="geometry" />
        </mxCell>
        <mxCell id="NhYI7kzIbhqHk0hFpWX_-76" value="lokale Hysterese auf dem Frontpanel anzeigen" style="rounded=1;whiteSpace=wrap;html=1;arcSize=40;fontColor=#000000;fillColor=#ffffc0;strokeColor=#ff0000;fontSize=15;" vertex="1" parent="1">
          <mxGeometry x="72.5" y="650" width="155" height="90" as="geometry" />
        </mxCell>
        <mxCell id="NhYI7kzIbhqHk0hFpWX_-78" value="" style="shape=line;html=1;strokeWidth=6;strokeColor=#ff0000;fontSize=15;" vertex="1" parent="1">
          <mxGeometry x="40" y="770" width="1010" height="10" as="geometry" />
        </mxCell>
        <mxCell id="NhYI7kzIbhqHk0hFpWX_-83" value="Aktuelle Temperatur auf Frontpanel anzeigen" style="rounded=1;whiteSpace=wrap;html=1;arcSize=40;fontColor=#000000;fillColor=#ffffc0;strokeColor=#ff0000;fontSize=15;" vertex="1" parent="1">
          <mxGeometry x="300" y="380" width="150" height="80" as="geometry" />
        </mxCell>
        <mxCell id="NhYI7kzIbhqHk0hFpWX_-85" value="Neu Ventilstellung über die Treiberfunktion Ventil setzen festlegen" style="rounded=1;whiteSpace=wrap;html=1;arcSize=40;fontColor=#000000;fillColor=#ffffc0;strokeColor=#ff0000;fontSize=15;" vertex="1" parent="1">
          <mxGeometry x="472.5" y="590" width="152.5" height="80" as="geometry" />
        </mxCell>
        <mxCell id="NhYI7kzIbhqHk0hFpWX_-88" value="" style="shape=line;html=1;strokeWidth=6;strokeColor=#ff0000;fontSize=15;" vertex="1" parent="1">
          <mxGeometry x="472.5" y="560" width="330" height="10" as="geometry" />
        </mxCell>
        <mxCell id="NhYI7kzIbhqHk0hFpWX_-89" value="" style="shape=line;html=1;strokeWidth=6;strokeColor=#ff0000;fontSize=15;" vertex="1" parent="1">
          <mxGeometry x="472.5" y="690" width="330" height="10" as="geometry" />
        </mxCell>
        <mxCell id="NhYI7kzIbhqHk0hFpWX_-98" value="" style="endArrow=classic;html=1;rounded=0;exitX=0.11;exitY=0.9;exitDx=0;exitDy=0;exitPerimeter=0;fontSize=15;" edge="1" parent="1" source="NhYI7kzIbhqHk0hFpWX_-53" target="NhYI7kzIbhqHk0hFpWX_-49">
          <mxGeometry width="50" height="50" relative="1" as="geometry">
            <mxPoint x="650" y="630" as="sourcePoint" />
            <mxPoint x="700" y="580" as="targetPoint" />
          </mxGeometry>
        </mxCell>
        <mxCell id="NhYI7kzIbhqHk0hFpWX_-102" style="edgeStyle=orthogonalEdgeStyle;rounded=0;orthogonalLoop=1;jettySize=auto;html=1;exitX=0.5;exitY=1;exitDx=0;exitDy=0;entryX=0.109;entryY=0.1;entryDx=0;entryDy=0;entryPerimeter=0;fontSize=15;" edge="1" parent="1" source="NhYI7kzIbhqHk0hFpWX_-76" target="NhYI7kzIbhqHk0hFpWX_-78">
          <mxGeometry relative="1" as="geometry" />
        </mxCell>
        <mxCell id="NhYI7kzIbhqHk0hFpWX_-103" value="" style="endArrow=classic;html=1;rounded=0;fontSize=15;" edge="1" parent="1" target="NhYI7kzIbhqHk0hFpWX_-83">
          <mxGeometry width="50" height="50" relative="1" as="geometry">
            <mxPoint x="375" y="340" as="sourcePoint" />
            <mxPoint x="700" y="580" as="targetPoint" />
          </mxGeometry>
        </mxCell>
        <mxCell id="NhYI7kzIbhqHk0hFpWX_-104" style="edgeStyle=orthogonalEdgeStyle;rounded=0;orthogonalLoop=1;jettySize=auto;html=1;exitX=0.5;exitY=1;exitDx=0;exitDy=0;entryX=0.332;entryY=0.6;entryDx=0;entryDy=0;entryPerimeter=0;fontSize=15;" edge="1" parent="1" source="NhYI7kzIbhqHk0hFpWX_-83" target="NhYI7kzIbhqHk0hFpWX_-78">
          <mxGeometry relative="1" as="geometry" />
        </mxCell>
        <mxCell id="NhYI7kzIbhqHk0hFpWX_-105" value="" style="endArrow=classic;html=1;rounded=0;exitX=0.593;exitY=0.8;exitDx=0;exitDy=0;exitPerimeter=0;fontSize=15;" edge="1" parent="1" source="NhYI7kzIbhqHk0hFpWX_-53" target="NhYI7kzIbhqHk0hFpWX_-56">
          <mxGeometry width="50" height="50" relative="1" as="geometry">
            <mxPoint x="650" y="630" as="sourcePoint" />
            <mxPoint x="700" y="580" as="targetPoint" />
          </mxGeometry>
        </mxCell>
        <mxCell id="NhYI7kzIbhqHk0hFpWX_-107" style="edgeStyle=orthogonalEdgeStyle;rounded=0;orthogonalLoop=1;jettySize=auto;html=1;exitX=0.5;exitY=1;exitDx=0;exitDy=0;entryX=0.502;entryY=0.5;entryDx=0;entryDy=0;entryPerimeter=0;fontSize=15;" edge="1" parent="1" source="NhYI7kzIbhqHk0hFpWX_-63" target="NhYI7kzIbhqHk0hFpWX_-88">
          <mxGeometry relative="1" as="geometry" />
        </mxCell>
        <mxCell id="NhYI7kzIbhqHk0hFpWX_-108" value="" style="endArrow=classic;html=1;rounded=0;exitX=0.229;exitY=0.9;exitDx=0;exitDy=0;exitPerimeter=0;entryX=0.5;entryY=0;entryDx=0;entryDy=0;fontSize=15;" edge="1" parent="1" source="NhYI7kzIbhqHk0hFpWX_-88" target="NhYI7kzIbhqHk0hFpWX_-85">
          <mxGeometry width="50" height="50" relative="1" as="geometry">
            <mxPoint x="650" y="630" as="sourcePoint" />
            <mxPoint x="700" y="580" as="targetPoint" />
          </mxGeometry>
        </mxCell>
        <mxCell id="NhYI7kzIbhqHk0hFpWX_-109" value="" style="endArrow=classic;html=1;rounded=0;entryX=0.5;entryY=0;entryDx=0;entryDy=0;fontSize=15;" edge="1" parent="1" target="NhYI7kzIbhqHk0hFpWX_-72">
          <mxGeometry width="50" height="50" relative="1" as="geometry">
            <mxPoint x="719" y="570" as="sourcePoint" />
            <mxPoint x="700" y="580" as="targetPoint" />
          </mxGeometry>
        </mxCell>
        <mxCell id="NhYI7kzIbhqHk0hFpWX_-110" style="edgeStyle=orthogonalEdgeStyle;rounded=0;orthogonalLoop=1;jettySize=auto;html=1;exitX=0.5;exitY=1;exitDx=0;exitDy=0;entryX=0.229;entryY=0.3;entryDx=0;entryDy=0;entryPerimeter=0;fontSize=15;" edge="1" parent="1" source="NhYI7kzIbhqHk0hFpWX_-85" target="NhYI7kzIbhqHk0hFpWX_-89">
          <mxGeometry relative="1" as="geometry" />
        </mxCell>
        <mxCell id="NhYI7kzIbhqHk0hFpWX_-111" style="rounded=0;orthogonalLoop=1;jettySize=auto;html=1;exitX=0.5;exitY=1;exitDx=0;exitDy=0;entryX=0.75;entryY=0.5;entryDx=0;entryDy=0;entryPerimeter=0;fontSize=15;" edge="1" parent="1" source="NhYI7kzIbhqHk0hFpWX_-72" target="NhYI7kzIbhqHk0hFpWX_-89">
          <mxGeometry relative="1" as="geometry" />
        </mxCell>
        <mxCell id="NhYI7kzIbhqHk0hFpWX_-112" value="" style="endArrow=classic;html=1;rounded=0;exitX=0.508;exitY=0.8;exitDx=0;exitDy=0;exitPerimeter=0;entryX=0.595;entryY=0.1;entryDx=0;entryDy=0;entryPerimeter=0;fontSize=15;" edge="1" parent="1" source="NhYI7kzIbhqHk0hFpWX_-89" target="NhYI7kzIbhqHk0hFpWX_-78">
          <mxGeometry width="50" height="50" relative="1" as="geometry">
            <mxPoint x="650" y="630" as="sourcePoint" />
            <mxPoint x="700" y="580" as="targetPoint" />
          </mxGeometry>
        </mxCell>
        <mxCell id="NhYI7kzIbhqHk0hFpWX_-113" value="" style="endArrow=classic;html=1;rounded=0;entryX=0.5;entryY=0;entryDx=0;entryDy=0;exitX=0.905;exitY=1;exitDx=0;exitDy=0;exitPerimeter=0;fontSize=15;" edge="1" parent="1" source="NhYI7kzIbhqHk0hFpWX_-53" target="NhYI7kzIbhqHk0hFpWX_-51">
          <mxGeometry width="50" height="50" relative="1" as="geometry">
            <mxPoint x="650" y="630" as="sourcePoint" />
            <mxPoint x="700" y="580" as="targetPoint" />
          </mxGeometry>
        </mxCell>
        <mxCell id="NhYI7kzIbhqHk0hFpWX_-118" style="edgeStyle=orthogonalEdgeStyle;rounded=0;orthogonalLoop=1;jettySize=auto;html=1;exitX=0.5;exitY=1;exitDx=0;exitDy=0;entryX=0.906;entryY=0.5;entryDx=0;entryDy=0;entryPerimeter=0;fontSize=15;" edge="1" parent="1" source="NhYI7kzIbhqHk0hFpWX_-74" target="NhYI7kzIbhqHk0hFpWX_-78">
          <mxGeometry relative="1" as="geometry" />
        </mxCell>
        <mxCell id="NhYI7kzIbhqHk0hFpWX_-119" value="" style="endArrow=classic;html=1;rounded=0;entryX=0.5;entryY=0;entryDx=0;entryDy=0;exitX=0.595;exitY=1;exitDx=0;exitDy=0;exitPerimeter=0;fontSize=15;" edge="1" parent="1" source="NhYI7kzIbhqHk0hFpWX_-78" target="NhYI7kzIbhqHk0hFpWX_-139">
          <mxGeometry width="50" height="50" relative="1" as="geometry">
            <mxPoint x="650" y="830" as="sourcePoint" />
            <mxPoint x="641.4949999999999" y="820" as="targetPoint" />
          </mxGeometry>
        </mxCell>
        <mxCell id="NhYI7kzIbhqHk0hFpWX_-129" style="edgeStyle=orthogonalEdgeStyle;rounded=0;orthogonalLoop=1;jettySize=auto;html=1;exitX=0;exitY=0.5;exitDx=0;exitDy=0;entryX=1;entryY=0.5;entryDx=0;entryDy=0;fontSize=15;" edge="1" parent="1" source="NhYI7kzIbhqHk0hFpWX_-121" target="NhYI7kzIbhqHk0hFpWX_-127">
          <mxGeometry relative="1" as="geometry" />
        </mxCell>
        <mxCell id="NhYI7kzIbhqHk0hFpWX_-130" value="&lt;font&gt;Ja&lt;/font&gt;" style="edgeLabel;html=1;align=center;verticalAlign=middle;resizable=0;points=[];fontSize=15;" vertex="1" connectable="0" parent="NhYI7kzIbhqHk0hFpWX_-129">
          <mxGeometry x="-0.0462" y="-1" relative="1" as="geometry">
            <mxPoint as="offset" />
          </mxGeometry>
        </mxCell>
        <mxCell id="NhYI7kzIbhqHk0hFpWX_-135" style="edgeStyle=orthogonalEdgeStyle;rounded=0;orthogonalLoop=1;jettySize=auto;html=1;exitX=0.5;exitY=1;exitDx=0;exitDy=0;entryX=0.5;entryY=0;entryDx=0;entryDy=0;fontSize=15;" edge="1" parent="1" source="NhYI7kzIbhqHk0hFpWX_-121" target="NhYI7kzIbhqHk0hFpWX_-45">
          <mxGeometry relative="1" as="geometry" />
        </mxCell>
        <mxCell id="NhYI7kzIbhqHk0hFpWX_-136" value="&lt;font&gt;Nein&lt;/font&gt;" style="edgeLabel;html=1;align=center;verticalAlign=middle;resizable=0;points=[];fontSize=15;" vertex="1" connectable="0" parent="NhYI7kzIbhqHk0hFpWX_-135">
          <mxGeometry x="-0.04" y="-1" relative="1" as="geometry">
            <mxPoint as="offset" />
          </mxGeometry>
        </mxCell>
        <mxCell id="NhYI7kzIbhqHk0hFpWX_-121" value="Sind im letzten Zyklus&amp;nbsp;&lt;div&gt;Fehler aufgetreten?&lt;/div&gt;" style="rhombus;whiteSpace=wrap;html=1;fontColor=#000000;fillColor=#ffffc0;strokeColor=#ff0000;fontSize=15;" vertex="1" parent="1">
          <mxGeometry x="422.5" y="70" width="245" height="90" as="geometry" />
        </mxCell>
        <mxCell id="NhYI7kzIbhqHk0hFpWX_-134" style="edgeStyle=orthogonalEdgeStyle;rounded=0;orthogonalLoop=1;jettySize=auto;html=1;exitX=0.5;exitY=1;exitDx=0;exitDy=0;entryX=0.5;entryY=0;entryDx=0;entryDy=0;fontSize=15;" edge="1" parent="1" source="NhYI7kzIbhqHk0hFpWX_-127" target="NhYI7kzIbhqHk0hFpWX_-133">
          <mxGeometry relative="1" as="geometry" />
        </mxCell>
        <mxCell id="NhYI7kzIbhqHk0hFpWX_-127" value="Verbindung zum Treiber schließen&amp;nbsp;" style="rounded=1;whiteSpace=wrap;html=1;arcSize=40;fontColor=#000000;fillColor=#ffffc0;strokeColor=#ff0000;fontSize=15;" vertex="1" parent="1">
          <mxGeometry x="110" y="95" width="150" height="40" as="geometry" />
        </mxCell>
        <mxCell id="NhYI7kzIbhqHk0hFpWX_-133" value="" style="ellipse;html=1;shape=endState;fillColor=#000000;strokeColor=#ff0000;fontSize=15;" vertex="1" parent="1">
          <mxGeometry x="170" y="200" width="30" height="30" as="geometry" />
        </mxCell>
        <mxCell id="NhYI7kzIbhqHk0hFpWX_-143" style="edgeStyle=orthogonalEdgeStyle;rounded=0;orthogonalLoop=1;jettySize=auto;html=1;exitX=0;exitY=0.5;exitDx=0;exitDy=0;entryX=1;entryY=0.5;entryDx=0;entryDy=0;fontSize=15;" edge="1" parent="1" source="NhYI7kzIbhqHk0hFpWX_-139" target="NhYI7kzIbhqHk0hFpWX_-142">
          <mxGeometry relative="1" as="geometry" />
        </mxCell>
        <mxCell id="NhYI7kzIbhqHk0hFpWX_-144" value="&lt;font&gt;Ja&lt;/font&gt;" style="edgeLabel;html=1;align=center;verticalAlign=middle;resizable=0;points=[];fontSize=15;" vertex="1" connectable="0" parent="NhYI7kzIbhqHk0hFpWX_-143">
          <mxGeometry x="-0.0821" relative="1" as="geometry">
            <mxPoint as="offset" />
          </mxGeometry>
        </mxCell>
        <mxCell id="NhYI7kzIbhqHk0hFpWX_-147" style="edgeStyle=orthogonalEdgeStyle;rounded=0;orthogonalLoop=1;jettySize=auto;html=1;exitX=1;exitY=0.5;exitDx=0;exitDy=0;fontSize=15;" edge="1" parent="1" source="NhYI7kzIbhqHk0hFpWX_-139">
          <mxGeometry relative="1" as="geometry">
            <mxPoint x="550" y="40" as="targetPoint" />
            <mxPoint x="1030" y="900" as="sourcePoint" />
            <Array as="points">
              <mxPoint x="1105" y="890" />
              <mxPoint x="1105" y="40" />
            </Array>
          </mxGeometry>
        </mxCell>
        <mxCell id="NhYI7kzIbhqHk0hFpWX_-148" value="&lt;font&gt;Nein&lt;/font&gt;" style="edgeLabel;html=1;align=center;verticalAlign=middle;resizable=0;points=[];fontSize=15;" vertex="1" connectable="0" parent="NhYI7kzIbhqHk0hFpWX_-147">
          <mxGeometry x="-0.7084" relative="1" as="geometry">
            <mxPoint as="offset" />
          </mxGeometry>
        </mxCell>
        <mxCell id="NhYI7kzIbhqHk0hFpWX_-139" value="Wurde der Button&amp;nbsp;&lt;div&gt;Beenden betätigt?&lt;/div&gt;" style="rhombus;whiteSpace=wrap;html=1;fontColor=#000000;fillColor=#ffffc0;strokeColor=#ff0000;fontSize=15;" vertex="1" parent="1">
          <mxGeometry x="549.75" y="830" width="183.5" height="120" as="geometry" />
        </mxCell>
        <mxCell id="NhYI7kzIbhqHk0hFpWX_-146" style="edgeStyle=orthogonalEdgeStyle;rounded=0;orthogonalLoop=1;jettySize=auto;html=1;exitX=0.5;exitY=1;exitDx=0;exitDy=0;entryX=0.5;entryY=0;entryDx=0;entryDy=0;fontSize=15;" edge="1" parent="1" source="NhYI7kzIbhqHk0hFpWX_-142" target="NhYI7kzIbhqHk0hFpWX_-145">
          <mxGeometry relative="1" as="geometry" />
        </mxCell>
        <mxCell id="NhYI7kzIbhqHk0hFpWX_-142" value="Verbindung zum Treiber schließen&amp;nbsp;" style="rounded=1;whiteSpace=wrap;html=1;arcSize=40;fontColor=#000000;fillColor=#ffffc0;strokeColor=#ff0000;fontSize=15;" vertex="1" parent="1">
          <mxGeometry x="272.5" y="870" width="150" height="40" as="geometry" />
        </mxCell>
        <mxCell id="NhYI7kzIbhqHk0hFpWX_-145" value="" style="ellipse;html=1;shape=endState;fillColor=#000000;strokeColor=#ff0000;fontSize=15;" vertex="1" parent="1">
          <mxGeometry x="333" y="960" width="30" height="30" as="geometry" />
        </mxCell>
      </root>
    </mxGraphModel>
  </diagram>
</mxfile>
